HIERARCHY
ROOT hip
{
  OFFSET 0.0 0.0 0.0
  CHANNELS 6 Xposition Yposition Zposition Zrotation Yrotation Xrotation
  JOINT torso
  {
    OFFSET 0.0 0.0 0.0
    CHANNELS 3 Zrotation Xrotation Yrotation
    JOINT neck
    {
      OFFSET -8.059630999999968 325.56260699999996 64.6221310000002
      CHANNELS 3 Zrotation Xrotation Yrotation
      JOINT head
      {
        OFFSET 34.685424000000125 375.1179809999999 232.79357900000002
        CHANNELS 3 Zrotation Xrotation Yrotation
        End Site
        {
          OFFSET 0.0 0.0 0.0
        }
      }
    }
    JOINT left_collar
    {
      OFFSET -8.059630999999968 325.56260699999996 64.6221310000002
      CHANNELS 3 Zrotation Xrotation Yrotation
      JOINT left_upper_arm
      {
        OFFSET -124.124665 -15.370300999999927 25.582641999999964
        CHANNELS 3 Zrotation Xrotation Yrotation
        JOINT left_forearm
        {
          OFFSET -268.19913399999996 105.06054699999993 114.74548300000004
          CHANNELS 3 Zrotation Xrotation Yrotation
          JOINT left_hand
          {
            OFFSET -235.82003099999991 -10.198180999999977 -38.67455999999993
            CHANNELS 3 Zrotation Xrotation Yrotation
            End Site
            {
              OFFSET 0.0 0.0 0.0
            }
          }
        }
      }
    }
    JOINT right_collar
    {
      OFFSET -8.059630999999968 325.56260699999996 64.6221310000002
      CHANNELS 3 Zrotation Xrotation Yrotation
      JOINT right_upper_arm
      {
        OFFSET 162.73931899999997 -2.8598030000000563 26.244994999999903
        CHANNELS 3 Zrotation Xrotation Yrotation
        JOINT right_forearm
        {
          OFFSET 284.6506340000001 103.07031299999994 145.84521499999994
          CHANNELS 3 Zrotation Xrotation Yrotation
          JOINT right_hand
          {
            OFFSET 226.332337 -12.198241999999937 -49.27258299999994
            CHANNELS 3 Zrotation Xrotation Yrotation
            End Site
            {
              OFFSET 0.0 0.0 0.0
            }
          }
        }
      }
    }
  }
}
MOTION
Frames: 8
Frame Time: 0.01
402.6806989381602 223.50137297323081 738.2471308236369 -0.1337188841222968 4.011349872777698 -2.4647466733053656 0.41169042085618507 -3.5922933686854344 -0.18246882474038176 -1.8136406366853883 -2.311745226686631 1.3608853446542355 0.0 0.0 0.0 0.6487023472048866 -0.08229802718802791 1.6694186740384258 1.0213127235504735 2.0969757908234286 4.44481274700446 0.5823476419797947 -0.1850900355733727 1.842584695390984 0.0 0.0 0.0 -0.24994632133264244 0.11037857797051048 3.518100077498434 0.6199366446099869 0.11557079634956594 -1.1797858336435623 -0.8565872124733803 -0.012360364965474583 2.8356458427941673 0.0 0.0 0.0
402.483083644988 223.48375605660416 737.9195484616317 -0.12298047532858578 3.9944432530514615 -2.446905206970905 0.40379137210291755 -3.583086143788432 -0.1804077740134908 -1.81062982103689 -2.327412518964368 1.3605376869461705 0.0 0.0 0.0 0.6529256285132323 -0.08121175371557124 1.6672533428054916 1.0417400311383695 2.1136842425709905 4.46945938737919 0.4250331969835594 -0.1501238362062786 1.7042337673051995 0.0 0.0 0.0 -0.2506968619337925 0.11034784807278579 3.5093374883117265 0.5721985637257541 0.14703514517577926 -1.2005854374787144 -0.7773296785370938 0.0025411527787294716 2.8304149902693263 0.0 0.0 0.0
402.28141249278616 223.46787869984163 737.5839607496124 -0.1125070708707019 3.978398272202399 -2.428368255140319 0.3960463572107803 -3.5740844992193517 -0.17838880866154616 -1.8075964043270922 -2.3437869719797018 1.360245492994913 0.0 0.0 0.0 0.6571779704046812 -0.08005038105855611 1.6645509020474212 1.0614396287184944 2.130016447875527 4.493859623876635 0.2628371170379945 -0.11464745113391821 1.5650094750021222 0.0 0.0 0.0 -0.2508110566336073 0.11020983635096741 3.5013496275877705 0.5227851099462988 0.17984021378399034 -1.2228580998463492 -0.6923539397920351 0.018354729894277094 2.8219564320422377 0.0 0.0 0.0
402.07108343563357 223.45208029940167 737.2376175781025 -0.10243932203451833 3.963249993594461 -2.408432440750998 0.38854593165259577 -3.5653945534041105 -0.17643546476620545 -1.8044588499883172 -2.360810992871302 1.359951153707387 0.0 0.0 0.0 0.6614755211498811 -0.07878609918051271 1.6611204986841224 1.0804182048908746 2.1460741494886184 4.51828124549232 0.09252328856482049 -0.07797720876761287 1.4218941184944567 0.0 0.0 0.0 -0.2502861407413854 0.10996419448246197 3.494138759319256 0.47051979149509704 0.2151282894063767 -1.2481446437465034 -0.5975252474735169 0.036013688189130824 2.8124848780002067 0.0 0.0 0.0
401.8470396298901 223.43444637985505 736.8775743799501 -0.09290969231594907 3.9489888142836906 -2.3862944101981443 0.3813731387745819 -3.5571054110234357 -0.17456904442333968 -1.8011052347619254 -2.3784091683663244 1.3595759566207923 0.0 0.0 0.0 0.6658297736533961 -0.07738668039672765 1.6567304865198205 1.0987361184317581 2.1619932842794003 4.543031525410745 -0.08935869166186042 -0.03941244521987181 1.2714863342567728 0.0 0.0 0.0 -0.24913522553955608 0.10961201310370557 3.4876275179176393 0.41415001233086196 0.2541140543173778 -1.2781006691483958 -0.4885306542931119 0.0565016584273012 2.8045938942244377 0.0 0.0 0.0
401.6038948993298 223.41282575449154 736.5007972171948 -0.08403802439349531 3.93555655498755 -2.3610664233578285 0.3746011124431282 -3.5492853839979266 -0.17280797704005516 -1.797394112656688 -2.3964861193695395 1.3590204086753084 0.0 0.0 0.0 0.6702463215835166 -0.0758162272213358 1.651112451910642 1.1165106779932301 2.177942539192689 4.56845027256308 -0.2863785961842646 0.0017361443576996455 1.1100662008478372 0.0 0.0 0.0 -0.24738865532887971 0.10915597875300609 3.481653582270216 0.3523784367525504 0.2980538679390151 -1.3144609091121686 -0.36100069766731646 0.08082372109185106 2.8012421384997586 0.0 0.0 0.0
401.3360732665089 223.38485142135005 736.1042720887261 -0.0759272755979903 3.9228435399746817 -2.3317961455692684 0.3682911113464434 -3.5419789904285754 -0.1711673025666814 -1.7931569046194349 -2.414924624756058 1.358165556796027 0.0 0.0 0.0 0.6747240721244577 -0.07403616113592056 1.643967770433834 1.133918410471653 2.1941214142966112 4.594902573818554 -0.5021279620467076 0.046115986939238296 0.9336675396683344 0.0 0.0 0.0 -0.2450952749899388 0.10860059036736364 3.475967799219948 0.28389486457267393 0.348213455711362 -1.3590012836511245 -0.21063522090755268 0.10997355948811803 2.8057340348292388 0.0 0.0 0.0
401.03795913815435 223.34796482177833 735.6851142152327 -0.0686595256097391 3.9106868029182444 -2.2974903728579403 0.36249103736635396 -3.535204834039756 -0.1696582899037349 -1.7882018576763845 -2.4335841925738206 1.3568753540428138 0.0 0.0 0.0 0.6792550016623035 -0.0720064387439197 1.6349767079353101 1.1511962162344311 2.2107578312758207 4.622771458126731 -0.74012323338233 0.09430070050492954 0.7381553642550093 0.0 0.0 0.0 -0.2423234948373257 0.10795241995102511 3.470236157838029 0.20740742119253724 0.4058350108883813 -1.413499606798888 -0.03332983348587141 0.1448969803102709 2.8216943117352016 0.0 0.0 0.0
